<svg xmlns="http://www.w3.org/2000/svg" version="1.1" xmlns:xlink="http://www.w3.org/1999/xlink" xmlns:svgjs="http://svgjs.dev/svgjs" width="1440" height="560" preserveAspectRatio="none" viewBox="0 0 1440 560"><g mask="url(&quot;#SvgjsMask1218&quot;)" fill="none"><rect width="1440" height="560" x="0" y="0" fill="url(&quot;#SvgjsLinearGradient1219&quot;)"></rect><path d="M220.41 52.55L265.88 52.55L265.88 98.02L220.41 98.02z" fill="rgba(213, 190, 7, 0.27)"></path><path d="M663.56 262.76L705.9 262.76L705.9 305.1L663.56 305.1z" fill="rgba(3, 123, 11, 0.14)"></path><path d="M1413.92 122.43L1422.27 122.43L1422.27 162.01L1413.92 162.01z" stroke="rgba(231, 54, 53, 0.26)"></path><path d="M-11.07 147.96 a40.11 40.11 0 1 0 80.22 0 a40.11 40.11 0 1 0 -80.22 0z" stroke="rgba(3, 123, 11, 0.14)"></path><path d="M139.45 139.77a16.23 16.23 0 1 0-5.66 31.96z" fill="rgba(231, 54, 53, 0.26)"></path><path d="M599.57 275.81a46.73 46.73 0 1 0 50.08-78.91z" stroke="rgba(231, 54, 53, 0.26)"></path><path d="M855.03 255.6 a7.31 7.31 0 1 0 14.62 0 a7.31 7.31 0 1 0 -14.62 0z" stroke="rgba(213, 190, 7, 0.27)"></path><path d="M1154.41 213.53a35.78 35.78 0 1 0 61.42-36.72z" fill="rgba(3, 123, 11, 0.14)"></path><path d="M831.59 218.75L877.6 218.75L877.6 264.76L831.59 264.76z" stroke="rgba(3, 123, 11, 0.14)"></path><path d="M1182.67 36.6L1220.5 36.6L1220.5 41.83L1182.67 41.83z" stroke="rgba(3, 123, 11, 0.14)"></path><path d="M891.86 25.14a20.73 20.73 0 1 0 34.39-23.16z" stroke="rgba(231, 54, 53, 0.26)"></path><path d="M368.67 78.51L406.64 78.51L406.64 109.76L368.67 109.76z" stroke="rgba(231, 54, 53, 0.26)"></path><path d="M860.95 74.05L906.52 74.05L906.52 119.62L860.95 119.62z" stroke="rgba(231, 54, 53, 0.26)"></path><path d="M901.87 421.57 a51.53 51.53 0 1 0 103.06 0 a51.53 51.53 0 1 0 -103.06 0z" fill="rgba(231, 54, 53, 0.26)"></path><path d="M626.86 86.57L644.33 86.57L644.33 104.04L626.86 104.04z" fill="rgba(231, 54, 53, 0.26)"></path><path d="M637.3 479.57a44.01 44.01 0 1 0-81.57-33.08z" fill="rgba(3, 123, 11, 0.14)"></path><path d="M687.13 87.2L719.16 87.2L719.16 123.94L687.13 123.94z" stroke="rgba(231, 54, 53, 0.26)"></path><path d="M1024.52 226.74a19.73 19.73 0 1 0 10.38 38.07z" stroke="rgba(213, 190, 7, 0.27)"></path><path d="M241.32 512.27L290.71 512.27L290.71 559.09L241.32 559.09z" fill="rgba(231, 54, 53, 0.26)"></path><path d="M119.61 175.31 a13.7 13.7 0 1 0 27.4 0 a13.7 13.7 0 1 0 -27.4 0z" stroke="rgba(3, 123, 11, 0.14)"></path><path d="M487.45 511.58L506.24 511.58L506.24 530.37L487.45 530.37z" stroke="rgba(3, 123, 11, 0.14)"></path><path d="M1392.99 256.86L1440.45 256.86L1440.45 292.86L1392.99 292.86z" fill="rgba(3, 123, 11, 0.14)"></path><path d="M1398.69 355.71L1416.33 355.71L1416.33 373.35L1398.69 373.35z" stroke="rgba(231, 54, 53, 0.26)"></path><path d="M95.2 226.1 a30.06 30.06 0 1 0 60.12 0 a30.06 30.06 0 1 0 -60.12 0z" stroke="rgba(213, 190, 7, 0.27)"></path><path d="M284.47 81.08 a51.77 51.77 0 1 0 103.54 0 a51.77 51.77 0 1 0 -103.54 0z" fill="rgba(3, 123, 11, 0.14)"></path><path d="M161.93 264.84L178.75 264.84L178.75 267.82L161.93 267.82z" fill="rgba(213, 190, 7, 0.27)"></path><path d="M319.05 286.43a8.32 8.32 0 1 0-1.99-16.52z" stroke="rgba(213, 190, 7, 0.27)"></path><path d="M745.11 557.32L754.01 557.32L754.01 566.22L745.11 566.22z" stroke="rgba(213, 190, 7, 0.27)"></path><path d="M712.65 427.35L742.11 427.35L742.11 465.07L712.65 465.07z" fill="rgba(3, 123, 11, 0.14)"></path><path d="M20.69 557.4 a41.5 41.5 0 1 0 83 0 a41.5 41.5 0 1 0 -83 0z" fill="rgba(231, 54, 53, 0.26)"></path><path d="M132.61 386.96a12.49 12.49 0 1 0 20.6 14.12z" fill="rgba(213, 190, 7, 0.27)"></path><path d="M886.02 115.66L920.45 115.66L920.45 150.09L886.02 150.09z" stroke="rgba(3, 123, 11, 0.14)"></path><path d="M33.91 255.42a20.17 20.17 0 1 0-6.39 39.83z" fill="rgba(213, 190, 7, 0.27)"></path></g><defs><mask id="SvgjsMask1218"><rect width="1440" height="560" fill="#ffffff"></rect></mask><linearGradient x1="15.28%" y1="-39.29%" x2="84.72%" y2="139.29%" gradientUnits="userSpaceOnUse" id="SvgjsLinearGradient1219"><stop stop-color="#0e2a47" offset="0"></stop><stop stop-color="rgba(0, 0, 0, 1)" offset="0.52"></stop><stop stop-color="rgba(0, 0, 0, 1)" offset="0.71"></stop><stop stop-color="rgba(0, 0, 0, 1)" offset="1"></stop></linearGradient></defs></svg>