<svg xmlns="http://www.w3.org/2000/svg" version="1.1" xmlns:xlink="http://www.w3.org/1999/xlink" xmlns:svgjs="http://svgjs.dev/svgjs" width="1440" height="560" preserveAspectRatio="none" viewBox="0 0 1440 560"><g clip-path="url(&quot;#SvgjsClipPath1066&quot;)" fill="none"><rect width="1440" height="560" x="0" y="0" fill="rgba(0, 0, 0, 1)"></rect><circle r="93.335" cx="-33.7" cy="4.51" stroke="#365aa3" stroke-opacity="0.25" stroke-width="2"></circle><circle r="93.335" cx="361.97" cy="394.3" stroke="#365aa3" stroke-opacity="0.25" stroke-width="2"></circle><circle r="93.335" cx="693.95" cy="659.38" stroke="#365aa3" stroke-opacity="0.25" stroke-width="2"></circle><circle r="154.19" cx="604.86" cy="417.83" stroke="#365aa3" stroke-opacity="0.25" stroke-width="2"></circle><circle r="73.165" cx="1030.33" cy="558.4" stroke="#365aa3" stroke-opacity="0.25" stroke-width="2"></circle><circle r="185.28" cx="922.76" cy="289.23" stroke="#365aa3" stroke-opacity="0.25" stroke-width="2"></circle><circle r="126.72" cx="1364.28" cy="363.17" stroke="#365aa3" stroke-opacity="0.25" stroke-width="2"></circle><circle r="171.905" cx="949.77" cy="92.26" stroke="#365aa3" stroke-opacity="0.25" stroke-width="2"></circle><circle r="182.75" cx="59.43" cy="58.04" stroke="#365aa3" stroke-opacity="0.25" stroke-width="2"></circle><circle r="175.03" cx="457.7" cy="244.41" stroke="#365aa3" stroke-opacity="0.25" stroke-width="2"></circle><circle r="69.295" cx="430.41" cy="209.49" stroke="#365aa3" stroke-opacity="0.25" stroke-width="2"></circle><circle r="119.97" cx="1248.06" cy="420.31" stroke="#365aa3" stroke-opacity="0.25" stroke-width="2"></circle><circle r="148.015" cx="347.46" cy="396.43" stroke="#365aa3" stroke-opacity="0.25" stroke-width="2"></circle><circle r="103.36" cx="1149.84" cy="108.15" stroke="#365aa3" stroke-opacity="0.25" stroke-width="2"></circle><circle r="165.94" cx="1312.29" cy="159.75" stroke="#365aa3" stroke-opacity="0.25" stroke-width="2"></circle><circle r="97.11" cx="187.31" cy="457.82" stroke="#365aa3" stroke-opacity="0.25" stroke-width="2"></circle><circle r="101.72" cx="397.37" cy="200.73" stroke="#365aa3" stroke-opacity="0.25" stroke-width="2"></circle><circle r="184.445" cx="1164.92" cy="8.47" stroke="#365aa3" stroke-opacity="0.25" stroke-width="2"></circle><circle r="173.245" cx="1382.57" cy="301.82" stroke="#365aa3" stroke-opacity="0.25" stroke-width="2"></circle><circle r="59.69" cx="71.27" cy="334.99" stroke="#365aa3" stroke-opacity="0.25" stroke-width="2"></circle><circle r="113.18" cx="2.6" cy="317.66" stroke="#365aa3" stroke-opacity="0.25" stroke-width="2"></circle><circle r="136.095" cx="1002.79" cy="271.54" stroke="#365aa3" stroke-opacity="0.25" stroke-width="2"></circle><circle r="163.22" cx="1144.68" cy="405.35" stroke="#365aa3" stroke-opacity="0.25" stroke-width="2"></circle><circle r="160.825" cx="85.53" cy="61.9" stroke="#365aa3" stroke-opacity="0.25" stroke-width="2"></circle></g><defs><clipPath id="SvgjsClipPath1066"><rect width="1440" height="560" x="0" y="0"></rect></clipPath></defs></svg>