<svg xmlns="http://www.w3.org/2000/svg" version="1.1" xmlns:xlink="http://www.w3.org/1999/xlink" xmlns:svgjs="http://svgjs.dev/svgjs" width="1440" height="560" preserveAspectRatio="none" viewBox="0 0 1440 560"><g mask="url(&quot;#SvgjsMask3198&quot;)" fill="none"><rect width="1440" height="560" x="0" y="0" fill="url(&quot;#SvgjsLinearGradient3199&quot;)"></rect><path d="M-74.57 371.57L-74.57 371.57" stroke="rgba(191, 245, 0, 1)" stroke-width="1.5"></path><path d="M-74.57 371.57L81.15 378.28" stroke="rgba(191, 245, 0, 1)" stroke-width="1.5"></path><path d="M-74.57 371.57L-104.62 545.59" stroke="rgba(191, 245, 0, 1)" stroke-width="1.5"></path><path d="M-74.57 371.57L88.51 547.36" stroke="rgba(191, 245, 0, 1)" stroke-width="1.5"></path><path d="M-74.57 371.57L196.46 337.92" stroke="rgba(191, 245, 0, 1)" stroke-width="1.5"></path><path d="M-104.62 545.59L-104.62 545.59" stroke="rgba(191, 245, 0, 1)" stroke-width="1.5"></path><path d="M-104.62 545.59L-112 678.25" stroke="rgba(191, 245, 0, 1)" stroke-width="1.5"></path><path d="M-104.62 545.59L88.51 547.36" stroke="rgba(191, 245, 0, 1)" stroke-width="1.5"></path><path d="M-104.62 545.59L81.15 378.28" stroke="rgba(191, 245, 0, 1)" stroke-width="1.5"></path><path d="M-112 678.25L-112 678.25" stroke="rgba(191, 245, 0, 1)" stroke-width="1.5"></path><path d="M81.15 378.28L81.15 378.28" stroke="rgba(191, 245, 0, 1)" stroke-width="1.5"></path><path d="M81.15 378.28L196.46 337.92" stroke="rgba(191, 245, 0, 1)" stroke-width="1.5"></path><path d="M88.51 547.36L88.51 547.36" stroke="rgba(191, 245, 0, 1)" stroke-width="1.5"></path><path d="M88.51 547.36L187.61 562.29" stroke="rgba(191, 245, 0, 1)" stroke-width="1.5"></path><path d="M88.51 547.36L110.25 678.43" stroke="rgba(191, 245, 0, 1)" stroke-width="1.5"></path><path d="M88.51 547.36L193.62 666.83" stroke="rgba(191, 245, 0, 1)" stroke-width="1.5"></path><path d="M88.51 547.36L81.15 378.28" stroke="rgba(191, 245, 0, 1)" stroke-width="1.5"></path><path d="M110.25 678.43L110.25 678.43" stroke="rgba(191, 245, 0, 1)" stroke-width="1.5"></path><path d="M110.25 678.43L193.62 666.83" stroke="rgba(191, 245, 0, 1)" stroke-width="1.5"></path><path d="M110.25 678.43L187.61 562.29" stroke="rgba(191, 245, 0, 1)" stroke-width="1.5"></path><path d="M110.25 678.43L-112 678.25" stroke="rgba(191, 245, 0, 1)" stroke-width="1.5"></path><path d="M110.25 678.43L354.33 694.64" stroke="rgba(191, 245, 0, 1)" stroke-width="1.5"></path><path d="M196.46 337.92L196.46 337.92" stroke="rgba(191, 245, 0, 1)" stroke-width="1.5"></path><path d="M196.46 337.92L349.1 377.83" stroke="rgba(191, 245, 0, 1)" stroke-width="1.5"></path><path d="M196.46 337.92L187.61 562.29" stroke="rgba(191, 245, 0, 1)" stroke-width="1.5"></path><path d="M187.61 562.29L187.61 562.29" stroke="rgba(191, 245, 0, 1)" stroke-width="1.5"></path><path d="M187.61 562.29L193.62 666.83" stroke="rgba(191, 245, 0, 1)" stroke-width="1.5"></path><path d="M187.61 562.29L345.51 534.07" stroke="rgba(191, 245, 0, 1)" stroke-width="1.5"></path><path d="M193.62 666.83L193.62 666.83" stroke="rgba(191, 245, 0, 1)" stroke-width="1.5"></path><path d="M349.1 377.83L349.1 377.83" stroke="rgba(191, 245, 0, 1)" stroke-width="1.5"></path><path d="M349.1 377.83L345.51 534.07" stroke="rgba(191, 245, 0, 1)" stroke-width="1.5"></path><path d="M349.1 377.83L547.27 362.1" stroke="rgba(191, 245, 0, 1)" stroke-width="1.5"></path><path d="M349.1 377.83L524.12 488.42" stroke="rgba(191, 245, 0, 1)" stroke-width="1.5"></path><path d="M345.51 534.07L345.51 534.07" stroke="rgba(191, 245, 0, 1)" stroke-width="1.5"></path><path d="M345.51 534.07L354.33 694.64" stroke="rgba(191, 245, 0, 1)" stroke-width="1.5"></path><path d="M345.51 534.07L524.12 488.42" stroke="rgba(191, 245, 0, 1)" stroke-width="1.5"></path><path d="M345.51 534.07L193.62 666.83" stroke="rgba(191, 245, 0, 1)" stroke-width="1.5"></path><path d="M354.33 694.64L354.33 694.64" stroke="rgba(191, 245, 0, 1)" stroke-width="1.5"></path><path d="M354.33 694.64L193.62 666.83" stroke="rgba(191, 245, 0, 1)" stroke-width="1.5"></path><path d="M547.27 362.1L547.27 362.1" stroke="rgba(191, 245, 0, 1)" stroke-width="1.5"></path><path d="M547.27 362.1L649.69 363.24" stroke="rgba(191, 245, 0, 1)" stroke-width="1.5"></path><path d="M547.27 362.1L524.12 488.42" stroke="rgba(191, 245, 0, 1)" stroke-width="1.5"></path><path d="M547.27 362.1L641.03 255.44" stroke="rgba(191, 245, 0, 1)" stroke-width="1.5"></path><path d="M547.27 362.1L345.51 534.07" stroke="rgba(191, 245, 0, 1)" stroke-width="1.5"></path><path d="M524.12 488.42L524.12 488.42" stroke="rgba(191, 245, 0, 1)" stroke-width="1.5"></path><path d="M549.56 675.24L549.56 675.24" stroke="rgba(191, 245, 0, 1)" stroke-width="1.5"></path><path d="M549.56 675.24L640.44 648.26" stroke="rgba(191, 245, 0, 1)" stroke-width="1.5"></path><path d="M549.56 675.24L524.12 488.42" stroke="rgba(191, 245, 0, 1)" stroke-width="1.5"></path><path d="M549.56 675.24L354.33 694.64" stroke="rgba(191, 245, 0, 1)" stroke-width="1.5"></path><path d="M549.56 675.24L345.51 534.07" stroke="rgba(191, 245, 0, 1)" stroke-width="1.5"></path><path d="M641.03 255.44L641.03 255.44" stroke="rgba(191, 245, 0, 1)" stroke-width="1.5"></path><path d="M641.03 255.44L649.69 363.24" stroke="rgba(191, 245, 0, 1)" stroke-width="1.5"></path><path d="M649.69 363.24L649.69 363.24" stroke="rgba(191, 245, 0, 1)" stroke-width="1.5"></path><path d="M649.69 363.24L524.12 488.42" stroke="rgba(191, 245, 0, 1)" stroke-width="1.5"></path><path d="M649.69 363.24L818.09 260.74" stroke="rgba(191, 245, 0, 1)" stroke-width="1.5"></path><path d="M640.44 648.26L640.44 648.26" stroke="rgba(191, 245, 0, 1)" stroke-width="1.5"></path><path d="M640.44 648.26L524.12 488.42" stroke="rgba(191, 245, 0, 1)" stroke-width="1.5"></path><path d="M640.44 648.26L852.87 673.3" stroke="rgba(191, 245, 0, 1)" stroke-width="1.5"></path><path d="M640.44 648.26L841.21 514.71" stroke="rgba(191, 245, 0, 1)" stroke-width="1.5"></path><path d="M640.44 648.26L649.69 363.24" stroke="rgba(191, 245, 0, 1)" stroke-width="1.5"></path><path d="M818.09 260.74L818.09 260.74" stroke="rgba(191, 245, 0, 1)" stroke-width="1.5"></path><path d="M818.09 260.74L857.84 353.93" stroke="rgba(191, 245, 0, 1)" stroke-width="1.5"></path><path d="M818.09 260.74L945.9 228.81" stroke="rgba(191, 245, 0, 1)" stroke-width="1.5"></path><path d="M818.09 260.74L641.03 255.44" stroke="rgba(191, 245, 0, 1)" stroke-width="1.5"></path><path d="M818.09 260.74L971 367.9" stroke="rgba(191, 245, 0, 1)" stroke-width="1.5"></path><path d="M818.09 260.74L952.06 110.91" stroke="rgba(191, 245, 0, 1)" stroke-width="1.5"></path><path d="M857.84 353.93L857.84 353.93" stroke="rgba(191, 245, 0, 1)" stroke-width="1.5"></path><path d="M857.84 353.93L971 367.9" stroke="rgba(191, 245, 0, 1)" stroke-width="1.5"></path><path d="M857.84 353.93L945.9 228.81" stroke="rgba(191, 245, 0, 1)" stroke-width="1.5"></path><path d="M857.84 353.93L841.21 514.71" stroke="rgba(191, 245, 0, 1)" stroke-width="1.5"></path><path d="M857.84 353.93L649.69 363.24" stroke="rgba(191, 245, 0, 1)" stroke-width="1.5"></path><path d="M841.21 514.71L841.21 514.71" stroke="rgba(191, 245, 0, 1)" stroke-width="1.5"></path><path d="M841.21 514.71L937.52 638.67" stroke="rgba(191, 245, 0, 1)" stroke-width="1.5"></path><path d="M841.21 514.71L852.87 673.3" stroke="rgba(191, 245, 0, 1)" stroke-width="1.5"></path><path d="M841.21 514.71L971 367.9" stroke="rgba(191, 245, 0, 1)" stroke-width="1.5"></path><path d="M852.87 673.3L852.87 673.3" stroke="rgba(191, 245, 0, 1)" stroke-width="1.5"></path><path d="M852.87 673.3L937.52 638.67" stroke="rgba(191, 245, 0, 1)" stroke-width="1.5"></path><path d="M973.93 -98.3L973.93 -98.3" stroke="rgba(191, 245, 0, 1)" stroke-width="1.5"></path><path d="M973.93 -98.3L1118.5 -110.25" stroke="rgba(191, 245, 0, 1)" stroke-width="1.5"></path><path d="M973.93 -98.3L952.06 110.91" stroke="rgba(191, 245, 0, 1)" stroke-width="1.5"></path><path d="M952.06 110.91L952.06 110.91" stroke="rgba(191, 245, 0, 1)" stroke-width="1.5"></path><path d="M952.06 110.91L945.9 228.81" stroke="rgba(191, 245, 0, 1)" stroke-width="1.5"></path><path d="M952.06 110.91L1088.71 212.58" stroke="rgba(191, 245, 0, 1)" stroke-width="1.5"></path><path d="M952.06 110.91L1148.78 43.45" stroke="rgba(191, 245, 0, 1)" stroke-width="1.5"></path><path d="M945.9 228.81L945.9 228.81" stroke="rgba(191, 245, 0, 1)" stroke-width="1.5"></path><path d="M945.9 228.81L971 367.9" stroke="rgba(191, 245, 0, 1)" stroke-width="1.5"></path><path d="M971 367.9L971 367.9" stroke="rgba(191, 245, 0, 1)" stroke-width="1.5"></path><path d="M937.52 638.67L937.52 638.67" stroke="rgba(191, 245, 0, 1)" stroke-width="1.5"></path><path d="M1118.5 -110.25L1118.5 -110.25" stroke="rgba(191, 245, 0, 1)" stroke-width="1.5"></path><path d="M1118.5 -110.25L1148.78 43.45" stroke="rgba(191, 245, 0, 1)" stroke-width="1.5"></path><path d="M1118.5 -110.25L1283.63 -73.42" stroke="rgba(191, 245, 0, 1)" stroke-width="1.5"></path><path d="M1118.5 -110.25L1285.8 40.81" stroke="rgba(191, 245, 0, 1)" stroke-width="1.5"></path><path d="M1118.5 -110.25L952.06 110.91" stroke="rgba(191, 245, 0, 1)" stroke-width="1.5"></path><path d="M1148.78 43.45L1148.78 43.45" stroke="rgba(191, 245, 0, 1)" stroke-width="1.5"></path><path d="M1148.78 43.45L1285.8 40.81" stroke="rgba(191, 245, 0, 1)" stroke-width="1.5"></path><path d="M1148.78 43.45L1283.63 -73.42" stroke="rgba(191, 245, 0, 1)" stroke-width="1.5"></path><path d="M1148.78 43.45L1088.71 212.58" stroke="rgba(191, 245, 0, 1)" stroke-width="1.5"></path><path d="M1088.71 212.58L1088.71 212.58" stroke="rgba(191, 245, 0, 1)" stroke-width="1.5"></path><path d="M1088.71 212.58L945.9 228.81" stroke="rgba(191, 245, 0, 1)" stroke-width="1.5"></path><path d="M1088.71 212.58L1151.37 361.96" stroke="rgba(191, 245, 0, 1)" stroke-width="1.5"></path><path d="M1151.37 361.96L1151.37 361.96" stroke="rgba(191, 245, 0, 1)" stroke-width="1.5"></path><path d="M1151.37 361.96L1267.35 349.88" stroke="rgba(191, 245, 0, 1)" stroke-width="1.5"></path><path d="M1157.21 545.92L1157.21 545.92" stroke="rgba(191, 245, 0, 1)" stroke-width="1.5"></path><path d="M1157.21 545.92L1246.34 537.69" stroke="rgba(191, 245, 0, 1)" stroke-width="1.5"></path><path d="M1157.21 545.92L1148.26 669.95" stroke="rgba(191, 245, 0, 1)" stroke-width="1.5"></path><path d="M1157.21 545.92L1151.37 361.96" stroke="rgba(191, 245, 0, 1)" stroke-width="1.5"></path><path d="M1157.21 545.92L1299 689.11" stroke="rgba(191, 245, 0, 1)" stroke-width="1.5"></path><path d="M1157.21 545.92L1267.35 349.88" stroke="rgba(191, 245, 0, 1)" stroke-width="1.5"></path><path d="M1157.21 545.92L937.52 638.67" stroke="rgba(191, 245, 0, 1)" stroke-width="1.5"></path><path d="M1148.26 669.95L1148.26 669.95" stroke="rgba(191, 245, 0, 1)" stroke-width="1.5"></path><path d="M1148.26 669.95L1299 689.11" stroke="rgba(191, 245, 0, 1)" stroke-width="1.5"></path><path d="M1148.26 669.95L1246.34 537.69" stroke="rgba(191, 245, 0, 1)" stroke-width="1.5"></path><path d="M1148.26 669.95L937.52 638.67" stroke="rgba(191, 245, 0, 1)" stroke-width="1.5"></path><path d="M1283.63 -73.42L1283.63 -73.42" stroke="rgba(191, 245, 0, 1)" stroke-width="1.5"></path><path d="M1283.63 -73.42L1285.8 40.81" stroke="rgba(191, 245, 0, 1)" stroke-width="1.5"></path><path d="M1283.63 -73.42L1406.12 -65.39" stroke="rgba(191, 245, 0, 1)" stroke-width="1.5"></path><path d="M1285.8 40.81L1285.8 40.81" stroke="rgba(191, 245, 0, 1)" stroke-width="1.5"></path><path d="M1285.8 40.81L1424.27 58.99" stroke="rgba(191, 245, 0, 1)" stroke-width="1.5"></path><path d="M1285.8 40.81L1406.12 -65.39" stroke="rgba(191, 245, 0, 1)" stroke-width="1.5"></path><path d="M1253.99 233.23L1253.99 233.23" stroke="rgba(191, 245, 0, 1)" stroke-width="1.5"></path><path d="M1253.99 233.23L1267.35 349.88" stroke="rgba(191, 245, 0, 1)" stroke-width="1.5"></path><path d="M1253.99 233.23L1397.64 238.66" stroke="rgba(191, 245, 0, 1)" stroke-width="1.5"></path><path d="M1253.99 233.23L1151.37 361.96" stroke="rgba(191, 245, 0, 1)" stroke-width="1.5"></path><path d="M1253.99 233.23L1088.71 212.58" stroke="rgba(191, 245, 0, 1)" stroke-width="1.5"></path><path d="M1267.35 349.88L1267.35 349.88" stroke="rgba(191, 245, 0, 1)" stroke-width="1.5"></path><path d="M1267.35 349.88L1423.4 348.64" stroke="rgba(191, 245, 0, 1)" stroke-width="1.5"></path><path d="M1267.35 349.88L1397.64 238.66" stroke="rgba(191, 245, 0, 1)" stroke-width="1.5"></path><path d="M1267.35 349.88L1246.34 537.69" stroke="rgba(191, 245, 0, 1)" stroke-width="1.5"></path><path d="M1246.34 537.69L1246.34 537.69" stroke="rgba(191, 245, 0, 1)" stroke-width="1.5"></path><path d="M1246.34 537.69L1299 689.11" stroke="rgba(191, 245, 0, 1)" stroke-width="1.5"></path><path d="M1246.34 537.69L1430.17 532.82" stroke="rgba(191, 245, 0, 1)" stroke-width="1.5"></path><path d="M1246.34 537.69L1151.37 361.96" stroke="rgba(191, 245, 0, 1)" stroke-width="1.5"></path><path d="M1299 689.11L1299 689.11" stroke="rgba(191, 245, 0, 1)" stroke-width="1.5"></path><path d="M1299 689.11L1419.47 692.88" stroke="rgba(191, 245, 0, 1)" stroke-width="1.5"></path><path d="M1299 689.11L1430.17 532.82" stroke="rgba(191, 245, 0, 1)" stroke-width="1.5"></path><path d="M1299 689.11L1552.99 541.26" stroke="rgba(191, 245, 0, 1)" stroke-width="1.5"></path><path d="M1406.12 -65.39L1406.12 -65.39" stroke="rgba(191, 245, 0, 1)" stroke-width="1.5"></path><path d="M1406.12 -65.39L1424.27 58.99" stroke="rgba(191, 245, 0, 1)" stroke-width="1.5"></path><path d="M1406.12 -65.39L1540.05 70.98" stroke="rgba(191, 245, 0, 1)" stroke-width="1.5"></path><path d="M1406.12 -65.39L1148.78 43.45" stroke="rgba(191, 245, 0, 1)" stroke-width="1.5"></path><path d="M1424.27 58.99L1424.27 58.99" stroke="rgba(191, 245, 0, 1)" stroke-width="1.5"></path><path d="M1424.27 58.99L1540.05 70.98" stroke="rgba(191, 245, 0, 1)" stroke-width="1.5"></path><path d="M1424.27 58.99L1397.64 238.66" stroke="rgba(191, 245, 0, 1)" stroke-width="1.5"></path><path d="M1424.27 58.99L1283.63 -73.42" stroke="rgba(191, 245, 0, 1)" stroke-width="1.5"></path><path d="M1397.64 238.66L1397.64 238.66" stroke="rgba(191, 245, 0, 1)" stroke-width="1.5"></path><path d="M1397.64 238.66L1423.4 348.64" stroke="rgba(191, 245, 0, 1)" stroke-width="1.5"></path><path d="M1423.4 348.64L1423.4 348.64" stroke="rgba(191, 245, 0, 1)" stroke-width="1.5"></path><path d="M1423.4 348.64L1430.17 532.82" stroke="rgba(191, 245, 0, 1)" stroke-width="1.5"></path><path d="M1423.4 348.64L1253.99 233.23" stroke="rgba(191, 245, 0, 1)" stroke-width="1.5"></path><path d="M1430.17 532.82L1430.17 532.82" stroke="rgba(191, 245, 0, 1)" stroke-width="1.5"></path><path d="M1430.17 532.82L1552.99 541.26" stroke="rgba(191, 245, 0, 1)" stroke-width="1.5"></path><path d="M1430.17 532.82L1419.47 692.88" stroke="rgba(191, 245, 0, 1)" stroke-width="1.5"></path><path d="M1419.47 692.88L1419.47 692.88" stroke="rgba(191, 245, 0, 1)" stroke-width="1.5"></path><path d="M1419.47 692.88L1596.93 693.63" stroke="rgba(191, 245, 0, 1)" stroke-width="1.5"></path><path d="M1540.05 70.98L1540.05 70.98" stroke="rgba(191, 245, 0, 1)" stroke-width="1.5"></path><path d="M1540.05 70.98L1591.57 224.28" stroke="rgba(191, 245, 0, 1)" stroke-width="1.5"></path><path d="M1540.05 70.98L1397.64 238.66" stroke="rgba(191, 245, 0, 1)" stroke-width="1.5"></path><path d="M1591.57 224.28L1591.57 224.28" stroke="rgba(191, 245, 0, 1)" stroke-width="1.5"></path><path d="M1591.57 224.28L1397.64 238.66" stroke="rgba(191, 245, 0, 1)" stroke-width="1.5"></path><path d="M1591.57 224.28L1423.4 348.64" stroke="rgba(191, 245, 0, 1)" stroke-width="1.5"></path><path d="M1591.57 224.28L1424.27 58.99" stroke="rgba(191, 245, 0, 1)" stroke-width="1.5"></path><path d="M1591.57 224.28L1552.99 541.26" stroke="rgba(191, 245, 0, 1)" stroke-width="1.5"></path><path d="M1552.99 541.26L1552.99 541.26" stroke="rgba(191, 245, 0, 1)" stroke-width="1.5"></path><path d="M1552.99 541.26L1596.93 693.63" stroke="rgba(191, 245, 0, 1)" stroke-width="1.5"></path><path d="M1552.99 541.26L1419.47 692.88" stroke="rgba(191, 245, 0, 1)" stroke-width="1.5"></path><path d="M1552.99 541.26L1423.4 348.64" stroke="rgba(191, 245, 0, 1)" stroke-width="1.5"></path><path d="M1596.93 693.63L1596.93 693.63" stroke="rgba(191, 245, 0, 1)" stroke-width="1.5"></path><circle r="5" cx="-74.57" cy="371.57" fill="rgba(191, 245, 0, 1)"></circle><circle r="5" cx="-104.62" cy="545.59" fill="rgba(191, 245, 0, 1)"></circle><circle r="5" cx="-112" cy="678.25" fill="rgba(191, 245, 0, 1)"></circle><circle r="5" cx="81.15" cy="378.28" fill="rgba(191, 245, 0, 1)"></circle><circle r="5" cx="88.51" cy="547.36" fill="rgba(191, 245, 0, 1)"></circle><circle r="5" cx="110.25" cy="678.43" fill="rgba(191, 245, 0, 1)"></circle><circle r="5" cx="196.46" cy="337.92" fill="rgba(191, 245, 0, 1)"></circle><circle r="5" cx="187.61" cy="562.29" fill="rgba(191, 245, 0, 1)"></circle><circle r="5" cx="193.62" cy="666.83" fill="rgba(191, 245, 0, 1)"></circle><circle r="5" cx="349.1" cy="377.83" fill="rgba(191, 245, 0, 1)"></circle><circle r="5" cx="345.51" cy="534.07" fill="rgba(191, 245, 0, 1)"></circle><circle r="5" cx="354.33" cy="694.64" fill="rgba(191, 245, 0, 1)"></circle><circle r="5" cx="547.27" cy="362.1" fill="rgba(191, 245, 0, 1)"></circle><circle r="5" cx="524.12" cy="488.42" fill="rgba(191, 245, 0, 1)"></circle><circle r="5" cx="549.56" cy="675.24" fill="rgba(191, 245, 0, 1)"></circle><circle r="5" cx="641.03" cy="255.44" fill="rgba(191, 245, 0, 1)"></circle><circle r="5" cx="649.69" cy="363.24" fill="rgba(191, 245, 0, 1)"></circle><circle r="5" cx="640.44" cy="648.26" fill="rgba(191, 245, 0, 1)"></circle><circle r="5" cx="818.09" cy="260.74" fill="rgba(191, 245, 0, 1)"></circle><circle r="5" cx="857.84" cy="353.93" fill="rgba(191, 245, 0, 1)"></circle><circle r="5" cx="841.21" cy="514.71" fill="rgba(191, 245, 0, 1)"></circle><circle r="5" cx="852.87" cy="673.3" fill="rgba(191, 245, 0, 1)"></circle><circle r="5" cx="973.93" cy="-98.3" fill="rgba(191, 245, 0, 1)"></circle><circle r="5" cx="952.06" cy="110.91" fill="rgba(191, 245, 0, 1)"></circle><circle r="5" cx="945.9" cy="228.81" fill="rgba(191, 245, 0, 1)"></circle><circle r="5" cx="971" cy="367.9" fill="rgba(191, 245, 0, 1)"></circle><circle r="5" cx="937.52" cy="638.67" fill="rgba(191, 245, 0, 1)"></circle><circle r="5" cx="1118.5" cy="-110.25" fill="rgba(191, 245, 0, 1)"></circle><circle r="5" cx="1148.78" cy="43.45" fill="rgba(191, 245, 0, 1)"></circle><circle r="5" cx="1088.71" cy="212.58" fill="rgba(191, 245, 0, 1)"></circle><circle r="5" cx="1151.37" cy="361.96" fill="rgba(191, 245, 0, 1)"></circle><circle r="5" cx="1157.21" cy="545.92" fill="rgba(191, 245, 0, 1)"></circle><circle r="5" cx="1148.26" cy="669.95" fill="rgba(191, 245, 0, 1)"></circle><circle r="5" cx="1283.63" cy="-73.42" fill="rgba(191, 245, 0, 1)"></circle><circle r="5" cx="1285.8" cy="40.81" fill="rgba(191, 245, 0, 1)"></circle><circle r="5" cx="1253.99" cy="233.23" fill="rgba(191, 245, 0, 1)"></circle><circle r="5" cx="1267.35" cy="349.88" fill="rgba(191, 245, 0, 1)"></circle><circle r="5" cx="1246.34" cy="537.69" fill="rgba(191, 245, 0, 1)"></circle><circle r="5" cx="1299" cy="689.11" fill="rgba(191, 245, 0, 1)"></circle><circle r="5" cx="1406.12" cy="-65.39" fill="rgba(191, 245, 0, 1)"></circle><circle r="5" cx="1424.27" cy="58.99" fill="rgba(191, 245, 0, 1)"></circle><circle r="5" cx="1397.64" cy="238.66" fill="rgba(191, 245, 0, 1)"></circle><circle r="5" cx="1423.4" cy="348.64" fill="rgba(191, 245, 0, 1)"></circle><circle r="5" cx="1430.17" cy="532.82" fill="rgba(191, 245, 0, 1)"></circle><circle r="5" cx="1419.47" cy="692.88" fill="rgba(191, 245, 0, 1)"></circle><circle r="5" cx="1540.05" cy="70.98" fill="rgba(191, 245, 0, 1)"></circle><circle r="5" cx="1591.57" cy="224.28" fill="rgba(191, 245, 0, 1)"></circle><circle r="5" cx="1552.99" cy="541.26" fill="rgba(191, 245, 0, 1)"></circle><circle r="5" cx="1596.93" cy="693.63" fill="rgba(191, 245, 0, 1)"></circle><path d="M400.37 533.55L400.37 533.55" stroke="hsl(46.69999999999999, 95.6%, 57.9%)" stroke-width="1.5"></path><path d="M400.37 533.55L500.74 494.25" stroke="hsl(46.69999999999999, 95.6%, 57.9%)" stroke-width="1.5"></path><path d="M400.37 533.55L378.6 662.94" stroke="hsl(46.69999999999999, 95.6%, 57.9%)" stroke-width="1.5"></path><path d="M541.45 644.81L541.45 644.81" stroke="hsl(46.69999999999999, 95.6%, 57.9%)" stroke-width="1.5"></path><path d="M541.45 644.81L500.74 494.25" stroke="hsl(46.69999999999999, 95.6%, 57.9%)" stroke-width="1.5"></path><path d="M541.45 644.81L672.8 558.06" stroke="hsl(46.69999999999999, 95.6%, 57.9%)" stroke-width="1.5"></path><path d="M541.45 644.81L378.6 662.94" stroke="hsl(46.69999999999999, 95.6%, 57.9%)" stroke-width="1.5"></path><path d="M541.45 644.81L707.13 692.99" stroke="hsl(46.69999999999999, 95.6%, 57.9%)" stroke-width="1.5"></path><path d="M541.45 644.81L400.37 533.55" stroke="hsl(46.69999999999999, 95.6%, 57.9%)" stroke-width="1.5"></path><path d="M541.45 644.81L831.02 682.09" stroke="hsl(46.69999999999999, 95.6%, 57.9%)" stroke-width="1.5"></path><path d="M672.8 558.06L672.8 558.06" stroke="hsl(46.69999999999999, 95.6%, 57.9%)" stroke-width="1.5"></path><path d="M672.8 558.06L707.13 692.99" stroke="hsl(46.69999999999999, 95.6%, 57.9%)" stroke-width="1.5"></path><path d="M954.72 676.9L954.72 676.9" stroke="hsl(46.69999999999999, 95.6%, 57.9%)" stroke-width="1.5"></path><path d="M954.72 676.9L831.02 682.09" stroke="hsl(46.69999999999999, 95.6%, 57.9%)" stroke-width="1.5"></path><path d="M954.72 676.9L962.07 510.06" stroke="hsl(46.69999999999999, 95.6%, 57.9%)" stroke-width="1.5"></path><path d="M954.72 676.9L832.43 554.29" stroke="hsl(46.69999999999999, 95.6%, 57.9%)" stroke-width="1.5"></path><path d="M954.72 676.9L1146.94 674.69" stroke="hsl(46.69999999999999, 95.6%, 57.9%)" stroke-width="1.5"></path><path d="M954.72 676.9L1112.8 506.08" stroke="hsl(46.69999999999999, 95.6%, 57.9%)" stroke-width="1.5"></path><path d="M954.72 676.9L707.13 692.99" stroke="hsl(46.69999999999999, 95.6%, 57.9%)" stroke-width="1.5"></path><path d="M1157.04 226.2L1157.04 226.2" stroke="hsl(46.69999999999999, 95.6%, 57.9%)" stroke-width="1.5"></path><path d="M1157.04 226.2L1256.26 230.98" stroke="hsl(46.69999999999999, 95.6%, 57.9%)" stroke-width="1.5"></path><path d="M1157.04 226.2L1137.24 375.73" stroke="hsl(46.69999999999999, 95.6%, 57.9%)" stroke-width="1.5"></path><path d="M1157.04 226.2L1267.71 66.53" stroke="hsl(46.69999999999999, 95.6%, 57.9%)" stroke-width="1.5"></path><path d="M1157.04 226.2L1277.7 380.29" stroke="hsl(46.69999999999999, 95.6%, 57.9%)" stroke-width="1.5"></path><path d="M1267.71 66.53L1267.71 66.53" stroke="hsl(46.69999999999999, 95.6%, 57.9%)" stroke-width="1.5"></path><path d="M1267.71 66.53L1244.66 -75.61" stroke="hsl(46.69999999999999, 95.6%, 57.9%)" stroke-width="1.5"></path><path d="M1267.71 66.53L1256.26 230.98" stroke="hsl(46.69999999999999, 95.6%, 57.9%)" stroke-width="1.5"></path><path d="M1267.71 66.53L1411.64 189.48" stroke="hsl(46.69999999999999, 95.6%, 57.9%)" stroke-width="1.5"></path><path d="M1388.17 340.45L1388.17 340.45" stroke="hsl(46.69999999999999, 95.6%, 57.9%)" stroke-width="1.5"></path><path d="M1388.17 340.45L1277.7 380.29" stroke="hsl(46.69999999999999, 95.6%, 57.9%)" stroke-width="1.5"></path><path d="M1388.17 340.45L1411.64 189.48" stroke="hsl(46.69999999999999, 95.6%, 57.9%)" stroke-width="1.5"></path><path d="M1388.17 340.45L1256.26 230.98" stroke="hsl(46.69999999999999, 95.6%, 57.9%)" stroke-width="1.5"></path><path d="M1388.17 340.45L1452.8 505.49" stroke="hsl(46.69999999999999, 95.6%, 57.9%)" stroke-width="1.5"></path><path d="M1606.27 -83.16L1606.27 -83.16" stroke="hsl(46.69999999999999, 95.6%, 57.9%)" stroke-width="1.5"></path><path d="M1606.27 -83.16L1576.23 47.63" stroke="hsl(46.69999999999999, 95.6%, 57.9%)" stroke-width="1.5"></path><path d="M1606.27 -83.16L1455.09 -38.83" stroke="hsl(46.69999999999999, 95.6%, 57.9%)" stroke-width="1.5"></path><path d="M1606.27 -83.16L1411.64 189.48" stroke="hsl(46.69999999999999, 95.6%, 57.9%)" stroke-width="1.5"></path><path d="M1606.27 -83.16L1244.66 -75.61" stroke="hsl(46.69999999999999, 95.6%, 57.9%)" stroke-width="1.5"></path><path d="M1606.27 -83.16L1267.71 66.53" stroke="hsl(46.69999999999999, 95.6%, 57.9%)" stroke-width="1.5"></path><path d="M1569.3 402.74L1569.3 402.74" stroke="hsl(46.69999999999999, 95.6%, 57.9%)" stroke-width="1.5"></path><path d="M1569.3 402.74L1541.4 551.18" stroke="hsl(46.69999999999999, 95.6%, 57.9%)" stroke-width="1.5"></path><path d="M1569.3 402.74L1452.8 505.49" stroke="hsl(46.69999999999999, 95.6%, 57.9%)" stroke-width="1.5"></path><path d="M-107.52 521.82L-107.52 521.82" stroke="hsl(46.69999999999999, 95.6%, 57.9%)" stroke-width="1.5"></path><path d="M-107.52 521.82L-42.4 663.07" stroke="hsl(46.69999999999999, 95.6%, 57.9%)" stroke-width="1.5"></path><path d="M-107.52 521.82L84.14 534.55" stroke="hsl(46.69999999999999, 95.6%, 57.9%)" stroke-width="1.5"></path><path d="M-107.52 521.82L44.62 709.26" stroke="hsl(46.69999999999999, 95.6%, 57.9%)" stroke-width="1.5"></path><path d="M-107.52 521.82L232.55 524.63" stroke="hsl(46.69999999999999, 95.6%, 57.9%)" stroke-width="1.5"></path><path d="M-107.52 521.82L378.6 662.94" stroke="hsl(46.69999999999999, 95.6%, 57.9%)" stroke-width="1.5"></path><path d="M-107.52 521.82L400.37 533.55" stroke="hsl(46.69999999999999, 95.6%, 57.9%)" stroke-width="1.5"></path><path d="M-42.4 663.07L-42.4 663.07" stroke="hsl(46.69999999999999, 95.6%, 57.9%)" stroke-width="1.5"></path><path d="M-42.4 663.07L44.62 709.26" stroke="hsl(46.69999999999999, 95.6%, 57.9%)" stroke-width="1.5"></path><path d="M-42.4 663.07L84.14 534.55" stroke="hsl(46.69999999999999, 95.6%, 57.9%)" stroke-width="1.5"></path><path d="M84.14 534.55L84.14 534.55" stroke="hsl(46.69999999999999, 95.6%, 57.9%)" stroke-width="1.5"></path><path d="M84.14 534.55L232.55 524.63" stroke="hsl(46.69999999999999, 95.6%, 57.9%)" stroke-width="1.5"></path><path d="M84.14 534.55L44.62 709.26" stroke="hsl(46.69999999999999, 95.6%, 57.9%)" stroke-width="1.5"></path><path d="M44.62 709.26L44.62 709.26" stroke="hsl(46.69999999999999, 95.6%, 57.9%)" stroke-width="1.5"></path><path d="M232.55 524.63L232.55 524.63" stroke="hsl(46.69999999999999, 95.6%, 57.9%)" stroke-width="1.5"></path><path d="M232.55 524.63L400.37 533.55" stroke="hsl(46.69999999999999, 95.6%, 57.9%)" stroke-width="1.5"></path><path d="M232.55 524.63L378.6 662.94" stroke="hsl(46.69999999999999, 95.6%, 57.9%)" stroke-width="1.5"></path><path d="M378.6 662.94L378.6 662.94" stroke="hsl(46.69999999999999, 95.6%, 57.9%)" stroke-width="1.5"></path><path d="M500.74 494.25L500.74 494.25" stroke="hsl(46.69999999999999, 95.6%, 57.9%)" stroke-width="1.5"></path><path d="M500.74 494.25L672.8 558.06" stroke="hsl(46.69999999999999, 95.6%, 57.9%)" stroke-width="1.5"></path><path d="M500.74 494.25L378.6 662.94" stroke="hsl(46.69999999999999, 95.6%, 57.9%)" stroke-width="1.5"></path><path d="M500.74 494.25L701.24 397.49" stroke="hsl(46.69999999999999, 95.6%, 57.9%)" stroke-width="1.5"></path><path d="M500.74 494.25L232.55 524.63" stroke="hsl(46.69999999999999, 95.6%, 57.9%)" stroke-width="1.5"></path><path d="M701.24 397.49L701.24 397.49" stroke="hsl(46.69999999999999, 95.6%, 57.9%)" stroke-width="1.5"></path><path d="M701.24 397.49L807.15 370.51" stroke="hsl(46.69999999999999, 95.6%, 57.9%)" stroke-width="1.5"></path><path d="M701.24 397.49L672.8 558.06" stroke="hsl(46.69999999999999, 95.6%, 57.9%)" stroke-width="1.5"></path><path d="M701.24 397.49L832.43 554.29" stroke="hsl(46.69999999999999, 95.6%, 57.9%)" stroke-width="1.5"></path><path d="M707.13 692.99L707.13 692.99" stroke="hsl(46.69999999999999, 95.6%, 57.9%)" stroke-width="1.5"></path><path d="M707.13 692.99L831.02 682.09" stroke="hsl(46.69999999999999, 95.6%, 57.9%)" stroke-width="1.5"></path><path d="M807.15 370.51L807.15 370.51" stroke="hsl(46.69999999999999, 95.6%, 57.9%)" stroke-width="1.5"></path><path d="M807.15 370.51L991.51 357.6" stroke="hsl(46.69999999999999, 95.6%, 57.9%)" stroke-width="1.5"></path><path d="M807.15 370.51L832.43 554.29" stroke="hsl(46.69999999999999, 95.6%, 57.9%)" stroke-width="1.5"></path><path d="M807.15 370.51L962.07 510.06" stroke="hsl(46.69999999999999, 95.6%, 57.9%)" stroke-width="1.5"></path><path d="M807.15 370.51L672.8 558.06" stroke="hsl(46.69999999999999, 95.6%, 57.9%)" stroke-width="1.5"></path><path d="M807.15 370.51L831.02 682.09" stroke="hsl(46.69999999999999, 95.6%, 57.9%)" stroke-width="1.5"></path><path d="M832.43 554.29L832.43 554.29" stroke="hsl(46.69999999999999, 95.6%, 57.9%)" stroke-width="1.5"></path><path d="M832.43 554.29L831.02 682.09" stroke="hsl(46.69999999999999, 95.6%, 57.9%)" stroke-width="1.5"></path><path d="M832.43 554.29L962.07 510.06" stroke="hsl(46.69999999999999, 95.6%, 57.9%)" stroke-width="1.5"></path><path d="M832.43 554.29L672.8 558.06" stroke="hsl(46.69999999999999, 95.6%, 57.9%)" stroke-width="1.5"></path><path d="M831.02 682.09L831.02 682.09" stroke="hsl(46.69999999999999, 95.6%, 57.9%)" stroke-width="1.5"></path><path d="M831.02 682.09L672.8 558.06" stroke="hsl(46.69999999999999, 95.6%, 57.9%)" stroke-width="1.5"></path><path d="M831.02 682.09L962.07 510.06" stroke="hsl(46.69999999999999, 95.6%, 57.9%)" stroke-width="1.5"></path><path d="M991.51 357.6L991.51 357.6" stroke="hsl(46.69999999999999, 95.6%, 57.9%)" stroke-width="1.5"></path><path d="M991.51 357.6L1137.24 375.73" stroke="hsl(46.69999999999999, 95.6%, 57.9%)" stroke-width="1.5"></path><path d="M991.51 357.6L962.07 510.06" stroke="hsl(46.69999999999999, 95.6%, 57.9%)" stroke-width="1.5"></path><path d="M991.51 357.6L1112.8 506.08" stroke="hsl(46.69999999999999, 95.6%, 57.9%)" stroke-width="1.5"></path><path d="M991.51 357.6L1157.04 226.2" stroke="hsl(46.69999999999999, 95.6%, 57.9%)" stroke-width="1.5"></path><path d="M991.51 357.6L832.43 554.29" stroke="hsl(46.69999999999999, 95.6%, 57.9%)" stroke-width="1.5"></path><path d="M962.07 510.06L962.07 510.06" stroke="hsl(46.69999999999999, 95.6%, 57.9%)" stroke-width="1.5"></path><path d="M962.07 510.06L1112.8 506.08" stroke="hsl(46.69999999999999, 95.6%, 57.9%)" stroke-width="1.5"></path><path d="M1137.24 375.73L1137.24 375.73" stroke="hsl(46.69999999999999, 95.6%, 57.9%)" stroke-width="1.5"></path><path d="M1137.24 375.73L1112.8 506.08" stroke="hsl(46.69999999999999, 95.6%, 57.9%)" stroke-width="1.5"></path><path d="M1137.24 375.73L1277.7 380.29" stroke="hsl(46.69999999999999, 95.6%, 57.9%)" stroke-width="1.5"></path><path d="M1112.8 506.08L1112.8 506.08" stroke="hsl(46.69999999999999, 95.6%, 57.9%)" stroke-width="1.5"></path><path d="M1146.94 674.69L1146.94 674.69" stroke="hsl(46.69999999999999, 95.6%, 57.9%)" stroke-width="1.5"></path><path d="M1146.94 674.69L1244.94 683.85" stroke="hsl(46.69999999999999, 95.6%, 57.9%)" stroke-width="1.5"></path><path d="M1146.94 674.69L1112.8 506.08" stroke="hsl(46.69999999999999, 95.6%, 57.9%)" stroke-width="1.5"></path><path d="M1146.94 674.69L1266.08 496.15" stroke="hsl(46.69999999999999, 95.6%, 57.9%)" stroke-width="1.5"></path><path d="M1146.94 674.69L962.07 510.06" stroke="hsl(46.69999999999999, 95.6%, 57.9%)" stroke-width="1.5"></path><path d="M1146.94 674.69L1409.28 639.06" stroke="hsl(46.69999999999999, 95.6%, 57.9%)" stroke-width="1.5"></path><path d="M1244.66 -75.61L1244.66 -75.61" stroke="hsl(46.69999999999999, 95.6%, 57.9%)" stroke-width="1.5"></path><path d="M1244.66 -75.61L1455.09 -38.83" stroke="hsl(46.69999999999999, 95.6%, 57.9%)" stroke-width="1.5"></path><path d="M1244.66 -75.61L1256.26 230.98" stroke="hsl(46.69999999999999, 95.6%, 57.9%)" stroke-width="1.5"></path><path d="M1244.66 -75.61L1411.64 189.48" stroke="hsl(46.69999999999999, 95.6%, 57.9%)" stroke-width="1.5"></path><path d="M1244.66 -75.61L1157.04 226.2" stroke="hsl(46.69999999999999, 95.6%, 57.9%)" stroke-width="1.5"></path><path d="M1244.66 -75.61L1576.23 47.63" stroke="hsl(46.69999999999999, 95.6%, 57.9%)" stroke-width="1.5"></path><path d="M1256.26 230.98L1256.26 230.98" stroke="hsl(46.69999999999999, 95.6%, 57.9%)" stroke-width="1.5"></path><path d="M1256.26 230.98L1277.7 380.29" stroke="hsl(46.69999999999999, 95.6%, 57.9%)" stroke-width="1.5"></path><path d="M1256.26 230.98L1411.64 189.48" stroke="hsl(46.69999999999999, 95.6%, 57.9%)" stroke-width="1.5"></path><path d="M1277.7 380.29L1277.7 380.29" stroke="hsl(46.69999999999999, 95.6%, 57.9%)" stroke-width="1.5"></path><path d="M1277.7 380.29L1266.08 496.15" stroke="hsl(46.69999999999999, 95.6%, 57.9%)" stroke-width="1.5"></path><path d="M1266.08 496.15L1266.08 496.15" stroke="hsl(46.69999999999999, 95.6%, 57.9%)" stroke-width="1.5"></path><path d="M1266.08 496.15L1112.8 506.08" stroke="hsl(46.69999999999999, 95.6%, 57.9%)" stroke-width="1.5"></path><path d="M1266.08 496.15L1137.24 375.73" stroke="hsl(46.69999999999999, 95.6%, 57.9%)" stroke-width="1.5"></path><path d="M1266.08 496.15L1452.8 505.49" stroke="hsl(46.69999999999999, 95.6%, 57.9%)" stroke-width="1.5"></path><path d="M1266.08 496.15L1244.94 683.85" stroke="hsl(46.69999999999999, 95.6%, 57.9%)" stroke-width="1.5"></path><path d="M1244.94 683.85L1244.94 683.85" stroke="hsl(46.69999999999999, 95.6%, 57.9%)" stroke-width="1.5"></path><path d="M1244.94 683.85L1409.28 639.06" stroke="hsl(46.69999999999999, 95.6%, 57.9%)" stroke-width="1.5"></path><path d="M1244.94 683.85L1112.8 506.08" stroke="hsl(46.69999999999999, 95.6%, 57.9%)" stroke-width="1.5"></path><path d="M1244.94 683.85L1452.8 505.49" stroke="hsl(46.69999999999999, 95.6%, 57.9%)" stroke-width="1.5"></path><path d="M1244.94 683.85L954.72 676.9" stroke="hsl(46.69999999999999, 95.6%, 57.9%)" stroke-width="1.5"></path><path d="M1455.09 -38.83L1455.09 -38.83" stroke="hsl(46.69999999999999, 95.6%, 57.9%)" stroke-width="1.5"></path><path d="M1455.09 -38.83L1576.23 47.63" stroke="hsl(46.69999999999999, 95.6%, 57.9%)" stroke-width="1.5"></path><path d="M1455.09 -38.83L1267.71 66.53" stroke="hsl(46.69999999999999, 95.6%, 57.9%)" stroke-width="1.5"></path><path d="M1411.64 189.48L1411.64 189.48" stroke="hsl(46.69999999999999, 95.6%, 57.9%)" stroke-width="1.5"></path><path d="M1411.64 189.48L1576.23 47.63" stroke="hsl(46.69999999999999, 95.6%, 57.9%)" stroke-width="1.5"></path><path d="M1411.64 189.48L1455.09 -38.83" stroke="hsl(46.69999999999999, 95.6%, 57.9%)" stroke-width="1.5"></path><path d="M1452.8 505.49L1452.8 505.49" stroke="hsl(46.69999999999999, 95.6%, 57.9%)" stroke-width="1.5"></path><path d="M1452.8 505.49L1541.4 551.18" stroke="hsl(46.69999999999999, 95.6%, 57.9%)" stroke-width="1.5"></path><path d="M1452.8 505.49L1409.28 639.06" stroke="hsl(46.69999999999999, 95.6%, 57.9%)" stroke-width="1.5"></path><path d="M1409.28 639.06L1409.28 639.06" stroke="hsl(46.69999999999999, 95.6%, 57.9%)" stroke-width="1.5"></path><path d="M1409.28 639.06L1541.4 551.18" stroke="hsl(46.69999999999999, 95.6%, 57.9%)" stroke-width="1.5"></path><path d="M1409.28 639.06L1266.08 496.15" stroke="hsl(46.69999999999999, 95.6%, 57.9%)" stroke-width="1.5"></path><path d="M1576.23 47.63L1576.23 47.63" stroke="hsl(46.69999999999999, 95.6%, 57.9%)" stroke-width="1.5"></path><path d="M1576.23 47.63L1267.71 66.53" stroke="hsl(46.69999999999999, 95.6%, 57.9%)" stroke-width="1.5"></path><path d="M1576.23 47.63L1388.17 340.45" stroke="hsl(46.69999999999999, 95.6%, 57.9%)" stroke-width="1.5"></path><path d="M1541.4 551.18L1541.4 551.18" stroke="hsl(46.69999999999999, 95.6%, 57.9%)" stroke-width="1.5"></path><path d="M1541.4 551.18L1388.17 340.45" stroke="hsl(46.69999999999999, 95.6%, 57.9%)" stroke-width="1.5"></path><path d="M1541.4 551.18L1266.08 496.15" stroke="hsl(46.69999999999999, 95.6%, 57.9%)" stroke-width="1.5"></path><circle r="25" cx="400.37" cy="533.55" fill="url(&quot;#SvgjsRadialGradient3200&quot;)"></circle><circle r="25" cx="541.45" cy="644.81" fill="url(&quot;#SvgjsRadialGradient3200&quot;)"></circle><circle r="25" cx="672.8" cy="558.06" fill="url(&quot;#SvgjsRadialGradient3200&quot;)"></circle><circle r="25" cx="954.72" cy="676.9" fill="url(&quot;#SvgjsRadialGradient3200&quot;)"></circle><circle r="25" cx="1157.04" cy="226.2" fill="url(&quot;#SvgjsRadialGradient3200&quot;)"></circle><circle r="25" cx="1267.71" cy="66.53" fill="url(&quot;#SvgjsRadialGradient3200&quot;)"></circle><circle r="25" cx="1388.17" cy="340.45" fill="url(&quot;#SvgjsRadialGradient3200&quot;)"></circle><circle r="25" cx="1606.27" cy="-83.16" fill="url(&quot;#SvgjsRadialGradient3200&quot;)"></circle><circle r="25" cx="1569.3" cy="402.74" fill="url(&quot;#SvgjsRadialGradient3200&quot;)"></circle><circle r="5" cx="-107.52" cy="521.82" fill="#efd782"></circle><circle r="5" cx="-42.4" cy="663.07" fill="#efd782"></circle><circle r="5" cx="84.14" cy="534.55" fill="#efd782"></circle><circle r="5" cx="44.62" cy="709.26" fill="#efd782"></circle><circle r="5" cx="232.55" cy="524.63" fill="#efd782"></circle><circle r="5" cx="378.6" cy="662.94" fill="#efd782"></circle><circle r="5" cx="500.74" cy="494.25" fill="#efd782"></circle><circle r="5" cx="701.24" cy="397.49" fill="#efd782"></circle><circle r="5" cx="707.13" cy="692.99" fill="#efd782"></circle><circle r="5" cx="807.15" cy="370.51" fill="#efd782"></circle><circle r="5" cx="832.43" cy="554.29" fill="#efd782"></circle><circle r="5" cx="831.02" cy="682.09" fill="#efd782"></circle><circle r="5" cx="991.51" cy="357.6" fill="#efd782"></circle><circle r="5" cx="962.07" cy="510.06" fill="#efd782"></circle><circle r="5" cx="1137.24" cy="375.73" fill="#efd782"></circle><circle r="5" cx="1112.8" cy="506.08" fill="#efd782"></circle><circle r="5" cx="1146.94" cy="674.69" fill="#efd782"></circle><circle r="5" cx="1244.66" cy="-75.61" fill="#efd782"></circle><circle r="5" cx="1256.26" cy="230.98" fill="#efd782"></circle><circle r="5" cx="1277.7" cy="380.29" fill="#efd782"></circle><circle r="5" cx="1266.08" cy="496.15" fill="#efd782"></circle><circle r="5" cx="1244.94" cy="683.85" fill="#efd782"></circle><circle r="5" cx="1455.09" cy="-38.83" fill="#efd782"></circle><circle r="5" cx="1411.64" cy="189.48" fill="#efd782"></circle><circle r="5" cx="1452.8" cy="505.49" fill="#efd782"></circle><circle r="5" cx="1409.28" cy="639.06" fill="#efd782"></circle><circle r="5" cx="1576.23" cy="47.63" fill="#efd782"></circle><circle r="5" cx="1541.4" cy="551.18" fill="#efd782"></circle></g><defs><mask id="SvgjsMask3198"><rect width="1440" height="560" fill="#ffffff"></rect></mask><linearGradient x1="0%" y1="50%" x2="100%" y2="50%" gradientUnits="userSpaceOnUse" id="SvgjsLinearGradient3199"><stop stop-color="rgba(255, 164, 57, 1)" offset="0.34"></stop><stop stop-color="rgba(255, 255, 255, 0)" offset="0.61"></stop></linearGradient><radialGradient id="SvgjsRadialGradient3200"><stop stop-color="#ffffff" offset="0.1"></stop><stop stop-color="rgba(222, 174, 5, 1)" offset="0.2"></stop><stop stop-color="rgba(222, 174, 5, 0)" offset="1"></stop></radialGradient></defs></svg>